<svg xmlns="http://www.w3.org/2000/svg" width="38" height="26" viewBox="0 0 38 26">
  <metadata><?xpacket begin="﻿" id="W5M0MpCehiHzreSzNTczkc9d"?>
<x:xmpmeta xmlns:x="adobe:ns:meta/" x:xmptk="Adobe XMP Core 5.6-c138 79.159824, 2016/09/14-01:09:01        ">
   <rdf:RDF xmlns:rdf="http://www.w3.org/1999/02/22-rdf-syntax-ns#">
      <rdf:Description rdf:about=""/>
   </rdf:RDF>
</x:xmpmeta>





















<?xpacket end="w"?></metadata>
<defs>
    <style>
      .cls-1 {
        fill: #4ba55e;
        fill-rule: evenodd;
      }
    </style>
  </defs>
  <path id="Фигура_1679" data-name="Фигура 1679" class="cls-1" d="M1423.64,63.456A26.854,26.854,0,0,0,1405,56h0a26.853,26.853,0,0,0-18.64,7.457,1.177,1.177,0,0,0-.03,1.665,1.215,1.215,0,0,0,.86.36,1.191,1.191,0,0,0,.82-0.33,24.633,24.633,0,0,1,33.98,0,1.2,1.2,0,0,0,1.68-.03A1.177,1.177,0,0,0,1423.64,63.456ZM1405,64.524c-8.25,0-14.43,5.544-16.71,7.928a1.176,1.176,0,0,0,0,1.618C1390.57,76.455,1396.75,82,1405,82s14.43-5.545,16.7-7.929a1.157,1.157,0,0,0,0-1.618C1419.43,70.069,1413.25,64.524,1405,64.524Zm-7.61,4.151a9.443,9.443,0,0,0-.19,9.079,25.615,25.615,0,0,1-6.37-4.492A25.48,25.48,0,0,1,1397.39,68.676Zm4.56,10.68a6.858,6.858,0,0,1,.88-12.327,15.782,15.782,0,0,1,3.8-.064,6.69,6.69,0,0,1,4.52,6.424,6.76,6.76,0,0,1-3.61,6.053,16.262,16.262,0,0,1-2.54.2A16.475,16.475,0,0,1,1401.95,79.355Zm10.37-1.375a9.357,9.357,0,0,0-.19-9.525,25.362,25.362,0,0,1,7.04,4.807A25.348,25.348,0,0,1,1412.32,77.98Zm-4.48-4.592a3,3,0,0,1-3.01-2.981A2.981,2.981,0,1,0,1407.84,73.388Z" transform="translate(-1386 -56)"/>
</svg>
